{
    "asset" : {
        "generator" : "Khronos glTF Blender I/O v1.4.40",
        "version" : "2.0"
    },
    "scene" : 0,
    "scenes" : [
        {
            "name" : "Scene",
            "nodes" : [
                0
            ]
        }
    ],
    "nodes" : [
        {
            "mesh" : 0,
            "name" : "Cube.006",
            "scale" : [
                4.341743469238281,
                3.441539764404297,
                0.11197608709335327
            ],
            "translation" : [
                22.061756134033203,
                5.267925262451172,
                -11.252549171447754
            ]
        }
    ],
    "materials" : [
        {
            "doubleSided" : true,
            "name" : "Material.007",
            "pbrMetallicRoughness" : {
                "baseColorFactor" : [
                    0.4764655828475952,
                    0.5382355451583862,
                    0.44901445508003235,
                    1
                ],
                "metallicFactor" : 0,
                "roughnessFactor" : 0.5
            }
        },
        {
            "doubleSided" : true,
            "name" : "Material.008",
            "pbrMetallicRoughness" : {
                "baseColorFactor" : [
                    0.36724644899368286,
                    0.36724644899368286,
                    0.36724644899368286,
                    1
                ],
                "metallicFactor" : 0,
                "roughnessFactor" : 0.5
            }
        }
    ],
    "meshes" : [
        {
            "name" : "Cube.011",
            "primitives" : [
                {
                    "attributes" : {
                        "POSITION" : 0,
                        "NORMAL" : 1,
                        "TEXCOORD_0" : 2
                    },
                    "indices" : 3,
                    "material" : 0
                },
                {
                    "attributes" : {
                        "POSITION" : 4,
                        "NORMAL" : 5,
                        "TEXCOORD_0" : 6
                    },
                    "indices" : 7,
                    "material" : 1
                }
            ]
        }
    ],
    "accessors" : [
        {
            "bufferView" : 0,
            "componentType" : 5126,
            "count" : 180,
            "max" : [
                1.1817011833190918,
                1.3749878406524658,
                9.133180618286133
            ],
            "min" : [
                -1.337263584136963,
                -1.414461374282837,
                -1
            ],
            "type" : "VEC3"
        },
        {
            "bufferView" : 1,
            "componentType" : 5126,
            "count" : 180,
            "type" : "VEC3"
        },
        {
            "bufferView" : 2,
            "componentType" : 5126,
            "count" : 180,
            "type" : "VEC2"
        },
        {
            "bufferView" : 3,
            "componentType" : 5123,
            "count" : 432,
            "type" : "SCALAR"
        },
        {
            "bufferView" : 4,
            "componentType" : 5126,
            "count" : 66,
            "max" : [
                0.9439060688018799,
                0.3244021236896515,
                9.133180618286133
            ],
            "min" : [
                0.8213897943496704,
                -0.39291539788246155,
                1
            ],
            "type" : "VEC3"
        },
        {
            "bufferView" : 5,
            "componentType" : 5126,
            "count" : 66,
            "type" : "VEC3"
        },
        {
            "bufferView" : 6,
            "componentType" : 5126,
            "count" : 66,
            "type" : "VEC2"
        },
        {
            "bufferView" : 7,
            "componentType" : 5123,
            "count" : 108,
            "type" : "SCALAR"
        }
    ],
    "bufferViews" : [
        {
            "buffer" : 0,
            "byteLength" : 2160,
            "byteOffset" : 0
        },
        {
            "buffer" : 0,
            "byteLength" : 2160,
            "byteOffset" : 2160
        },
        {
            "buffer" : 0,
            "byteLength" : 1440,
            "byteOffset" : 4320
        },
        {
            "buffer" : 0,
            "byteLength" : 864,
            "byteOffset" : 5760
        },
        {
            "buffer" : 0,
            "byteLength" : 792,
            "byteOffset" : 6624
        },
        {
            "buffer" : 0,
            "byteLength" : 792,
            "byteOffset" : 7416
        },
        {
            "buffer" : 0,
            "byteLength" : 528,
            "byteOffset" : 8208
        },
        {
            "buffer" : 0,
            "byteLength" : 216,
            "byteOffset" : 8736
        }
    ],
    "buffers" : [
        {
            "byteLength" : 8952,
            "uri" : "data:application/octet-stream;base64,"
        }
    ]
}
